PathFileType	4	(X/Y/Z)	./resultDataOpenSim/trcMotMarkerGrf/sub09/qtm-12-03.trc
DataRate	CameraRate	NumFrames	NumMarkers	Units	OrigDataRate	OrigDataStartFrame	OrigNumFrames
250.000000	250.000000	6	24	m	250.000000	408	466
Frame#	Time	L.Toe.Tip			R.Toe.Tip			L.Ankle.Lat			R.Ankle.Lat			L.Ankle.Med			R.Ankle.Med			L.Heel			R.Heel			L.Knee.Lat			R.Knee.Lat			L.Knee.Med			R.Knee.Med			L.Thigh.Upper			R.Thigh.Upper			L.ASIS			R.ASIS			V.Sacral			L.Acromium			R.Acromium			C7			L.Elbow			R.Elbow			L.Wrist.Lat			R.Wrist.Lat
		X1	Y1	Z1	X2	Y2	Z2	X3	Y3	Z3	X4	Y4	Z4	X5	Y5	Z5	X6	Y6	Z6	X7	Y7	Z7	X8	Y8	Z8	X9	Y9	Z9	X10	Y10	Z10	X11	Y11	Z11	X12	Y12	Z12	X13	Y13	Z13	X14	Y14	Z14	X15	Y15	Z15	X16	Y16	Z16	X17	Y17	Z17	X18	Y18	Z18	X19	Y19	Z19	X20	Y20	Z20	X21	Y21	Z21	X22	Y22	Z22	X23	Y23	Z23	X24	Y24	Z24

408	1.628	1.8379172	0.11380036	-0.13843451	1.1003867	0.041004401	0.005448517	1.6875065	0.080731649	-0.16337639	0.97288538	0.10078958	0.050125457	1.7096805	0.10883798	-0.070428653	0.99520953	0.13642098	-0.039269088	1.6417362	0.018819868	-0.10999694	0.89878345	0.10863636	-0.0013886886	1.5459732	0.476212	-0.19220054	1.2383873	0.48440209	0.1086628	1.5511267	0.46854897	-0.065648735	1.2217924	0.47650486	-0.015709566	1.3656129	0.85097117	-0.22216728	1.3193589	0.88060409	0.14738591	1.4348464	0.94446464	-0.16055509	1.4269695	0.95915817	0.081659615	1.2617629	0.9988447	-0.055089863	1.3714255	1.40108	-0.22913597	1.3822344	1.4221072	0.10202399	1.3103435	1.4577408	-0.060400551	1.2072739	1.0714296	-0.26893713	1.2579866	1.0810766	0.20556808	1.314474	0.83259446	-0.31469755	1.4408074	0.8745485	0.22059152
409	1.632	1.8425572	0.10619229	-0.13849184	1.1007474	0.041224649	0.0054373109	1.6911102	0.078860536	-0.16285072	0.97583427	0.1030252	0.051001411	1.7139071	0.10675843	-0.06994376	0.9971831	0.13803766	-0.038446969	1.6430883	0.019348151	-0.10950383	0.90042621	0.11166588	-0.00062306759	1.5543756	0.4756231	-0.19267294	1.2445713	0.48314929	0.10900245	1.55979	0.46839246	-0.066136947	1.2284836	0.47483389	-0.015232097	1.3724532	0.85025467	-0.22321579	1.3259099	0.87926377	0.14650511	1.4416248	0.94364937	-0.16127646	1.4337573	0.95780033	0.081006957	1.2684352	0.99756014	-0.055907122	1.3774127	1.3999338	-0.22975065	1.3876579	1.420903	0.10146272	1.3158576	1.456422	-0.061098312	1.2139956	1.0700503	-0.26961057	1.2636945	1.0797254	0.20475006	1.3209561	0.83115054	-0.31546655	1.446359	0.87330097	0.22046024
410	1.636	1.8472955	0.097815158	-0.13828334	1.1011496	0.041485599	0.0055096703	1.694503	0.07737472	-0.16243603	0.97963119	0.10550144	0.051899268	1.7180923	0.10498229	-0.069588121	0.99933403	0.13969646	-0.037583721	1.6442043	0.020481519	-0.10904285	0.90222439	0.1148361	0.00015763074	1.5623742	0.47514217	-0.19334268	1.251112	0.48191281	0.10941532	1.5682647	0.46820384	-0.066745623	1.2355142	0.47324224	-0.01467851	1.3792786	0.84959658	-0.22426755	1.3325373	0.87789741	0.14560612	1.4483057	0.94295519	-0.16196703	1.4405968	0.9564458	0.080334625	1.2750318	0.99637963	-0.056662997	1.3834151	1.3988177	-0.23037901	1.3931009	1.4197186	0.10089765	1.321381	1.4551857	-0.061802354	1.2207445	1.0686907	-0.27031179	1.2690662	1.0783754	0.2038989	1.327487	0.82972103	-0.31622166	1.4518477	0.87204118	0.22033449
411	1.64	1.8518925	0.089580094	-0.13772851	1.1015745	0.041747797	0.0056591292	1.6976365	0.076244608	-0.16224536	0.98333472	0.10802175	0.052813855	1.7220963	0.10342458	-0.069425416	1.0016628	0.14139728	-0.036671631	1.64525	0.021958342	-0.10880005	0.90419309	0.11814787	0.00099228872	1.5700354	0.47490874	-0.19414341	1.2579006	0.48066743	0.10981106	1.5765229	0.46818568	-0.067434779	1.2425366	0.47172872	-0.014281013	1.3861239	0.84899752	-0.22533959	1.33924	0.87650189	0.14470353	1.4548944	0.94238795	-0.16264147	1.4474712	0.9551044	0.079651796	1.281545	0.99532074	-0.057333943	1.3894351	1.3977401	-0.23103618	1.3985678	1.4185649	0.10032931	1.3269352	1.4540724	-0.062500905	1.2274875	1.0673135	-0.27109336	1.2741936	1.0770482	0.20301465	1.3340759	0.82831068	-0.31696647	1.4572749	0.87077079	0.22021467
412	1.644	1.8560362	0.082245579	-0.136914	1.102007	0.041969444	0.0059182476	1.7005506	0.07537118	-0.16231524	0.98594728	0.11039782	0.053765534	1.7257439	0.10201218	-0.069456536	1.0041526	0.14316021	-0.035700861	1.6463321	0.023473844	-0.10891457	0.90635099	0.12159962	0.0019084084	1.5776014	0.47505978	-0.19500361	1.2647612	0.47939709	0.11014014	1.5845896	0.46859588	-0.068180127	1.2494696	0.47017817	-0.014191889	1.3929962	0.84847774	-0.22643545	1.3460146	0.87506957	0.1438162	1.4614073	0.94194194	-0.16332592	1.4543619	0.9537867	0.078962814	1.2879797	0.99438322	-0.057928486	1.39547	1.3967124	-0.23173117	1.4040548	1.4174535	0.099765885	1.3325347	1.4530934	-0.063199325	1.2341966	1.0658843	-0.27201734	1.2793529	1.0757674	0.20212301	1.3407288	0.82692423	-0.3177087	1.4626466	0.86949143	0.22010182
413	1.648	1.8595278	0.076051712	-0.13600677	1.1024541	0.042135956	0.0063081317	1.7033477	0.07466632	-0.16259411	0.98710836	0.11258351	0.05481309	1.7289732	0.10075491	-0.06962784	1.0067888	0.1450127	-0.034659215	1.647474	0.024832868	-0.109351	0.90871367	0.1251946	0.0029120306	1.5853664	0.47569012	-0.195883	1.2715876	0.47812017	0.11041768	1.5925739	0.46956015	-0.068966848	1.2564777	0.46852305	-0.014328976	1.3998726	0.84807429	-0.22753468	1.3528566	0.87358725	0.1429606	1.4678492	0.94161471	-0.16403526	1.4612456	0.95250677	0.078266913	1.2943451	0.99355447	-0.058468239	1.4015085	1.3957514	-0.23246036	1.409551	1.4164017	0.09921373	1.3381864	1.4522418	-0.063921715	1.2408824	1.0644103	-0.27308487	1.2847286	1.0745569	0.20123926	1.3474405	0.82556893	-0.31844818	1.4679676	0.86820654	0.21999347
